# xmcd CD database file
#
# Track frame offsets:
#	150
#	15618
#	30461
#	51721
#	56825
#	70756
#	93565
#	113610
#	130868
#	158994
#	186337
#	203471
#
# Disc length: 3104 seconds
#
# Revision: 0
# Processed by: cddbd v1.5.2PL0 Copyright (c) Steve Scherf et al.
# Submitted via: CDex 1.51
#
DISCID=a40c1e0c
DTITLE=Davide Speranza - Ready to Live
DYEAR=1900
DGENRE=Blues
TTITLE0=SS33 (Road to My Baby)
TTITLE1=Line for Lyons
TTITLE2=Ready to Live
TTITLE3=Mosquito
TTITLE4=Quick People
TTITLE5=Autumn Leaves
TTITLE6=If You Love Me Like You Say
TTITLE7=On The Sunny Sides of the Street
TTITLE8=Black Orpheus
TTITLE9=Train of Troubles
TTITLE10=Corrina, Corrina
TTITLE11=Amazing Grace
EXTD=
EXTT0=
EXTT1=
EXTT2=
EXTT3=
EXTT4=
EXTT5=
EXTT6=
EXTT7=
EXTT8=
EXTT9=
EXTT10=
EXTT11=
PLAYORDER=
